<svg id="Layer_1" data-name="Layer 1" xmlns="http://www.w3.org/2000/svg" viewBox="0 0 32 13.98"><defs><style>.cls-1{fill:#b5401c;}</style></defs><path class="cls-1" d="M4.68,14a5.9,5.9,0,0,1-3.43-1.15A3.77,3.77,0,0,1,0,9.75V4.81Q0,0,4.84,0T9.65,4.66v2H12V6.07Q12.11,0,18.72,0C21.17,0,23,.74,24,2.23A4.18,4.18,0,0,1,27.78,0C30.6,0,32,1.55,32,4.66V14H29V4.63a1.6,1.6,0,0,0-1.79-1.84,1.62,1.62,0,0,0-1.82,1.84V14h-3V6.17q0-3.37-3.73-3.38C16.27,2.79,15,3.87,15,6v.62a5.74,5.74,0,0,1,3.51,1,3.52,3.52,0,0,1,1.26,3,3.23,3.23,0,0,1-.48,1.76A3.37,3.37,0,0,1,18,13.56,4.17,4.17,0,0,1,16.1,14,4.37,4.37,0,0,1,13,13a3.83,3.83,0,0,1-1-2.92v-1H9.65V14h-3V4.63A1.62,1.62,0,0,0,4.84,2.79,1.67,1.67,0,0,0,3,4.71V9.63c0,1.24.73,2,2.18,2.17ZM16.1,11.7a1.08,1.08,0,0,0,.91-.31,1.33,1.33,0,0,0,.25-.84,1.23,1.23,0,0,0-.58-1.09A3.15,3.15,0,0,0,15,9.09v1.38C15,11.29,15.35,11.7,16.1,11.7Z"/></svg>